HIERARCHY
ROOT newVegas:Hips
{
	OFFSET 0.000000 96.479958 0.000000
	CHANNELS 6 Xposition Yposition Zposition Xrotation Yrotation Zrotation
	JOINT newVegas:Pelvis
	{
		OFFSET 0.000000 0.000000 0.000000
		CHANNELS 3 Xrotation Yrotation Zrotation
		JOINT newVegas:LeftUpLeg
		{
			OFFSET 18.735201 -5.666702 -4.541200
			CHANNELS 3 Xrotation Yrotation Zrotation
			JOINT newVegas:LeftLeg
			{
				OFFSET -0.021200 -31.938179 0.493100
				CHANNELS 3 Xrotation Yrotation Zrotation
				JOINT newVegas:LeftFoot
				{
					OFFSET 0.021200 -31.938179 -4.336299
					CHANNELS 3 Xrotation Yrotation Zrotation
					JOINT newVegas:LeftToeBase
					{
						OFFSET 0.943001 -26.722000 15.023500
						CHANNELS 3 Xrotation Yrotation Zrotation
						End Site
						{
							OFFSET 0.000000 30.670183 0.000000
						}
					}
				}
				JOINT newVegas:Left_PantLeg
				{
					OFFSET 0.663870 -9.044666 -1.108900
					CHANNELS 3 Xrotation Yrotation Zrotation
					End Site
					{
						OFFSET 1.415995 20.635357 0.000000
					}
				}
			}
		}
		JOINT newVegas:RightUpLeg
		{
			OFFSET -18.735201 -5.666702 -4.541200
			CHANNELS 3 Xrotation Yrotation Zrotation
			JOINT newVegas:RightLeg
			{
				OFFSET 0.018946 -31.938133 0.493100
				CHANNELS 3 Xrotation Yrotation Zrotation
				JOINT newVegas:RightFoot
				{
					OFFSET -0.018946 -31.938126 -4.336299
					CHANNELS 3 Xrotation Yrotation Zrotation
					JOINT newVegas:RightToeBase
					{
						OFFSET -0.943001 -26.722004 15.023500
						CHANNELS 3 Xrotation Yrotation Zrotation
						End Site
						{
							OFFSET 0.000000 30.670187 0.000000
						}
					}
				}
				JOINT newVegas:Right_PantLeg
				{
					OFFSET -0.661674 -9.044716 -1.108900
					CHANNELS 3 Xrotation Yrotation Zrotation
					End Site
					{
						OFFSET -1.415958 20.635269 0.000000
					}
				}
			}
		}
	}
	JOINT newVegas:Spine
	{
		OFFSET 0.000000 10.199997 -0.299500
		CHANNELS 3 Xrotation Yrotation Zrotation
		JOINT newVegas:Spine1
		{
			OFFSET 0.000000 11.900002 -1.516600
			CHANNELS 3 Xrotation Yrotation Zrotation
			JOINT newVegas:Spine2
			{
				OFFSET 0.000000 13.600006 -2.842500
				CHANNELS 3 Xrotation Yrotation Zrotation
				JOINT newVegas:Neck
				{
					OFFSET 0.000000 9.624100 -2.890100
					CHANNELS 3 Xrotation Yrotation Zrotation
					JOINT newVegas:Head
					{
						OFFSET 0.000000 14.068802 -1.351900
						CHANNELS 3 Xrotation Yrotation Zrotation
						JOINT newVegas:Hair_Back
						{
							OFFSET 0.000000 3.231903 -17.524799
							CHANNELS 3 Xrotation Yrotation Zrotation
							End Site
							{
								OFFSET 0.000000 19.849884 0.000000
							}
						}
						JOINT newVegas:Hair_Front
						{
							OFFSET 0.000000 31.260406 4.573800
							CHANNELS 3 Xrotation Yrotation Zrotation
							JOINT newVegas:Hair_Front1
							{
								OFFSET 0.000000 2.284103 11.993300
								CHANNELS 3 Xrotation Yrotation Zrotation
								JOINT newVegas:Hair_Front2
								{
									OFFSET 0.000000 2.284103 11.993300
									CHANNELS 3 Xrotation Yrotation Zrotation
									End Site
									{
										OFFSET 0.000000 12.208862 0.000000
									}
								}
							}
						}
						JOINT newVegas:Jowel
						{
							OFFSET 0.000000 -7.458206 6.864100
							CHANNELS 3 Xrotation Yrotation Zrotation
							End Site
							{
								OFFSET 0.000000 19.849884 0.000000
							}
						}
					}
				}
				JOINT newVegas:LeftShoulder
				{
					OFFSET 15.263000 10.923401 -0.547700
					CHANNELS 3 Xrotation Yrotation Zrotation
					JOINT newVegas:LeftArm
					{
						OFFSET 25.438599 -2.830597 -13.032500
						CHANNELS 3 Xrotation Yrotation Zrotation
						JOINT newVegas:LeftForeArm
						{
							OFFSET 29.960503 0.000000 0.000000
							CHANNELS 3 Xrotation Yrotation Zrotation
							JOINT newVegas:LeftHand
							{
								OFFSET 27.849251 0.000000 0.000000
								CHANNELS 3 Xrotation Yrotation Zrotation
								JOINT newVegas:LeftHandThumb1
								{
									OFFSET 4.487587 -3.305161 6.305391
									CHANNELS 3 Xrotation Yrotation Zrotation
									JOINT newVegas:LeftHandThumb2
									{
										OFFSET 5.480453 -3.164139 3.164143
										CHANNELS 3 Xrotation Yrotation Zrotation
										JOINT newVegas:LeftHandThumb3
										{
											OFFSET 5.159721 -2.978973 2.978967
											CHANNELS 3 Xrotation Yrotation Zrotation
											End Site
											{
												OFFSET 2.494507 5.926697 1.738678
											}
										}
									}
								}
								JOINT newVegas:LeftHandIndex1
								{
									OFFSET 18.578728 -0.527832 5.208049
									CHANNELS 3 Xrotation Yrotation Zrotation
									JOINT newVegas:LeftHandIndex2
									{
										OFFSET 3.192009 0.000000 0.000000
										CHANNELS 3 Xrotation Yrotation Zrotation
										JOINT newVegas:LeftHandIndex3
										{
											OFFSET 3.835129 0.000000 0.000000
											CHANNELS 3 Xrotation Yrotation Zrotation
											End Site
											{
												OFFSET -0.034599 3.816971 0.371180
											}
										}
									}
								}
								JOINT newVegas:LeftHandMiddle1
								{
									OFFSET 18.476105 0.000000 0.000000
									CHANNELS 3 Xrotation Yrotation Zrotation
									JOINT newVegas:LeftHandMiddle2
									{
										OFFSET 3.324875 0.000000 0.000000
										CHANNELS 3 Xrotation Yrotation Zrotation
										JOINT newVegas:LeftHandMiddle3
										{
											OFFSET 4.596550 0.000000 0.000000
											CHANNELS 3 Xrotation Yrotation Zrotation
											End Site
											{
												OFFSET 0.057701 4.578827 0.399218
											}
										}
									}
								}
								JOINT newVegas:LeftHandRing1
								{
									OFFSET 17.732719 0.121887 -4.201567
									CHANNELS 3 Xrotation Yrotation Zrotation
									JOINT newVegas:LeftHandRing2
									{
										OFFSET 2.733170 0.000000 0.000000
										CHANNELS 3 Xrotation Yrotation Zrotation
										JOINT newVegas:LeftHandRing3
										{
											OFFSET 3.178268 0.000000 0.000000
											CHANNELS 3 Xrotation Yrotation Zrotation
											End Site
											{
												OFFSET 0.119102 3.170624 0.185394
											}
										}
									}
								}
								JOINT newVegas:LeftHandPinky1
								{
									OFFSET 15.989624 -0.606689 -7.535461
									CHANNELS 3 Xrotation Yrotation Zrotation
									JOINT newVegas:LeftHandPinky2
									{
										OFFSET 2.538986 0.000000 0.000000
										CHANNELS 3 Xrotation Yrotation Zrotation
										JOINT newVegas:LeftHandPinky3
										{
											OFFSET 2.593102 0.000000 0.000000
											CHANNELS 3 Xrotation Yrotation Zrotation
											End Site
											{
												OFFSET -0.150902 2.584198 0.152708
											}
										}
									}
								}
							}
							JOINT newVegas:Left_Sleeve
							{
								OFFSET 0.267448 -0.649796 0.577675
								CHANNELS 3 Xrotation Yrotation Zrotation
								End Site
								{
									OFFSET 0.000000 15.991241 0.000000
								}
							}
							JOINT newVegas:Left_CapeC
							{
								OFFSET 15.715958 -8.608795 -6.935905
								CHANNELS 3 Xrotation Yrotation Zrotation
								JOINT newVegas:Left_CapeC1
								{
									OFFSET 0.000000 -8.688499 0.000000
									CHANNELS 3 Xrotation Yrotation Zrotation
									End Site
									{
										OFFSET 0.000000 8.688499 0.000000
									}
								}
							}
						}
						JOINT newVegas:Left_CapeB
						{
							OFFSET 26.118385 -8.608795 -7.079235
							CHANNELS 3 Xrotation Yrotation Zrotation
							JOINT newVegas:Left_CapeB1
							{
								OFFSET 0.000000 -8.688499 0.000000
								CHANNELS 3 Xrotation Yrotation Zrotation
								End Site
								{
									OFFSET 0.000000 8.688499 0.000000
								}
							}
						}
						JOINT newVegas:Left_CapeA
						{
							OFFSET 5.115639 -8.608795 -10.395809
							CHANNELS 3 Xrotation Yrotation Zrotation
							JOINT newVegas:Left_CapeA1
							{
								OFFSET 0.000000 -8.688499 0.000000
								CHANNELS 3 Xrotation Yrotation Zrotation
								End Site
								{
									OFFSET 0.000000 8.688499 0.000000
								}
							}
						}
					}
				}
				JOINT newVegas:RightShoulder
				{
					OFFSET -15.263000 10.923401 -0.547700
					CHANNELS 3 Xrotation Yrotation Zrotation
					JOINT newVegas:RightArm
					{
						OFFSET -25.438599 -2.830597 -13.032500
						CHANNELS 3 Xrotation Yrotation Zrotation
						JOINT newVegas:RightForeArm
						{
							OFFSET -29.960503 0.000000 0.000000
							CHANNELS 3 Xrotation Yrotation Zrotation
							JOINT newVegas:RightHand
							{
								OFFSET -27.849251 0.000000 0.000000
								CHANNELS 3 Xrotation Yrotation Zrotation
								JOINT newVegas:RightHandThumb1
								{
									OFFSET -4.487587 -3.305161 6.305391
									CHANNELS 3 Xrotation Yrotation Zrotation
									JOINT newVegas:RightHandThumb2
									{
										OFFSET -5.480453 -3.164139 3.164143
										CHANNELS 3 Xrotation Yrotation Zrotation
										JOINT newVegas:RightHandThumb3
										{
											OFFSET -5.159721 -2.978973 2.978967
											CHANNELS 3 Xrotation Yrotation Zrotation
											End Site
											{
												OFFSET -2.494507 5.926697 1.738678
											}
										}
									}
								}
								JOINT newVegas:RightHandIndex1
								{
									OFFSET -18.578728 -0.527832 5.208049
									CHANNELS 3 Xrotation Yrotation Zrotation
									JOINT newVegas:RightHandIndex2
									{
										OFFSET -3.192009 0.000000 0.000000
										CHANNELS 3 Xrotation Yrotation Zrotation
										JOINT newVegas:RightHandIndex3
										{
											OFFSET -3.835129 0.000000 0.000000
											CHANNELS 3 Xrotation Yrotation Zrotation
											End Site
											{
												OFFSET 0.034599 3.816971 0.371180
											}
										}
									}
								}
								JOINT newVegas:RightHandMiddle1
								{
									OFFSET -18.476105 0.000000 0.000000
									CHANNELS 3 Xrotation Yrotation Zrotation
									JOINT newVegas:RightHandMiddle2
									{
										OFFSET -3.324875 0.000000 0.000000
										CHANNELS 3 Xrotation Yrotation Zrotation
										JOINT newVegas:RightHandMiddle3
										{
											OFFSET -4.596550 0.000000 0.000000
											CHANNELS 3 Xrotation Yrotation Zrotation
											End Site
											{
												OFFSET -0.057701 4.578827 0.399218
											}
										}
									}
								}
								JOINT newVegas:RightHandRing1
								{
									OFFSET -17.732719 0.121887 -4.201567
									CHANNELS 3 Xrotation Yrotation Zrotation
									JOINT newVegas:RightHandRing2
									{
										OFFSET -2.733170 0.000000 0.000000
										CHANNELS 3 Xrotation Yrotation Zrotation
										JOINT newVegas:RightHandRing3
										{
											OFFSET -3.178268 0.000000 0.000000
											CHANNELS 3 Xrotation Yrotation Zrotation
											End Site
											{
												OFFSET -0.119102 3.170624 0.185394
											}
										}
									}
								}
								JOINT newVegas:RightHandPinky1
								{
									OFFSET -15.989624 -0.606689 -7.535461
									CHANNELS 3 Xrotation Yrotation Zrotation
									JOINT newVegas:RightHandPinky2
									{
										OFFSET -2.538986 0.000000 0.000000
										CHANNELS 3 Xrotation Yrotation Zrotation
										JOINT newVegas:RightHandPinky3
										{
											OFFSET -2.593102 0.000000 0.000000
											CHANNELS 3 Xrotation Yrotation Zrotation
											End Site
											{
												OFFSET 0.150902 2.584198 0.152708
											}
										}
									}
								}
							}
							JOINT newVegas:Right_CapeC
							{
								OFFSET -15.715958 -8.608795 -6.935905
								CHANNELS 3 Xrotation Yrotation Zrotation
								JOINT newVegas:Right_CapeC1
								{
									OFFSET 0.000000 -8.688499 0.000000
									CHANNELS 3 Xrotation Yrotation Zrotation
									End Site
									{
										OFFSET 0.000000 8.688499 0.000000
									}
								}
							}
							JOINT newVegas:Right_Sleeve
							{
								OFFSET -0.267448 -0.649994 0.577675
								CHANNELS 3 Xrotation Yrotation Zrotation
								End Site
								{
									OFFSET 0.000000 15.991302 0.000000
								}
							}
						}
						JOINT newVegas:Right_CapeA
						{
							OFFSET -5.115540 -8.608795 -10.395824
							CHANNELS 3 Xrotation Yrotation Zrotation
							JOINT newVegas:Right_CapeA1
							{
								OFFSET 0.000000 -8.688499 0.000000
								CHANNELS 3 Xrotation Yrotation Zrotation
								End Site
								{
									OFFSET 0.000000 8.688499 0.000000
								}
							}
						}
						JOINT newVegas:Right_CapeB
						{
							OFFSET -26.118187 -8.608795 -7.079266
							CHANNELS 3 Xrotation Yrotation Zrotation
							JOINT newVegas:Right_CapeB1
							{
								OFFSET 0.000000 -8.688499 0.000000
								CHANNELS 3 Xrotation Yrotation Zrotation
								End Site
								{
									OFFSET 0.000000 8.688499 0.000000
								}
							}
						}
					}
				}
				JOINT newVegas:Left_Collar
				{
					OFFSET 18.625099 8.655502 8.828100
					CHANNELS 3 Xrotation Yrotation Zrotation
					JOINT newVegas:Left_Collar1
					{
						OFFSET 14.783401 10.540405 -1.259500
						CHANNELS 3 Xrotation Yrotation Zrotation
						End Site
						{
							OFFSET 0.000000 18.199875 0.000000
						}
					}
				}
				JOINT newVegas:Collar_Back
				{
					OFFSET 0.000000 15.630707 -20.132601
					CHANNELS 3 Xrotation Yrotation Zrotation
					End Site
					{
						OFFSET 0.000000 22.523010 0.000000
					}
				}
				JOINT newVegas:Left_Peck
				{
					OFFSET 17.239599 -5.132599 25.482599
					CHANNELS 3 Xrotation Yrotation Zrotation
					End Site
					{
						OFFSET 0.000000 22.523010 0.000000
					}
				}
				JOINT newVegas:Right_Peck
				{
					OFFSET -17.239599 -5.132202 25.482599
					CHANNELS 3 Xrotation Yrotation Zrotation
					End Site
					{
						OFFSET 0.000000 22.523010 0.000000
					}
				}
				JOINT newVegas:Right_Collar
				{
					OFFSET -18.625099 8.655792 8.828100
					CHANNELS 3 Xrotation Yrotation Zrotation
					JOINT newVegas:Right_Collar1
					{
						OFFSET -14.783401 10.539993 -1.259500
						CHANNELS 3 Xrotation Yrotation Zrotation
						End Site
						{
							OFFSET 0.000000 18.199631 0.000000
						}
					}
				}
			}
		}
		JOINT newVegas:Belly
		{
			OFFSET 0.000000 -6.540398 9.014299
			CHANNELS 3 Xrotation Yrotation Zrotation
			End Site
			{
				OFFSET 0.000000 11.566666 0.000000
			}
		}
	}
	JOINT newVegas:ElvisFacialAnim_Joint
	{
		OFFSET 1.000000 -95.330101 -8.825800
		CHANNELS 3 Xrotation Yrotation Zrotation
		End Site
		{
			OFFSET 0.000000 35.315800 0.000000
		}
	}
}
MOTION
Frames: 4
Frame Time: 0.033333
7.167385 79.856987 -2.683876 2.286547 -59.793559 6.065320 -0.000000 -0.000000 -0.000000 -45.097294 3.691539 23.357022 63.805325 3.046671 -0.224584 -17.213117 -8.033356 -18.656540 -0.000000 0.000000 -0.000000 -0.000001 0.000002 0.000001 -45.486703 7.378939 -27.237724 66.521521 -2.766219 -6.539372 -15.822751 -4.622517 21.758181 0.000000 -0.000000 -0.000000 -0.000001 -0.000001 -0.000000 21.923813 1.807236 3.641821 17.760862 1.477331 -1.063300 17.748745 1.496048 -1.086073 2.631387 0.290273 -0.767129 2.631376 0.290290 -0.767151 -0.000000 -0.000001 0.000002 2.631413 0.290305 -0.767153 2.631385 0.290252 -0.767119 -0.000000 -0.000001 0.000002 -0.000000 -0.000001 0.000002 -1.167653 -8.018490 12.588936 -37.932292 2.357091 -52.954026 0.000026 -113.928395 0.000036 -7.348459 3.974261 -10.910595 -6.141213 -11.690800 -6.761689 9.914102 42.595512 3.409876 -0.000003 0.000003 -0.000004 0.255313 3.378225 -45.814365 5.654098 5.847764 -88.067462 -0.000001 0.000001 0.000001 -0.461468 3.841582 -39.722673 6.450738 5.820338 -95.892864 -0.000000 -0.000000 -0.000000 0.469726 4.966813 -39.799441 8.181046 5.368603 -113.503018 -0.000005 -0.000001 -0.000001 -3.762430 9.063711 -45.253814 5.342517 5.828979 -85.005311 -0.000001 -0.000007 0.000000 -0.000001 0.000000 0.000000 -0.000001 0.000000 0.000000 -0.000002 0.000001 0.000000 0.000000 0.000000 -0.000001 0.000002 -0.000000 -0.000002 0.000000 0.000000 -0.000001 -0.000000 0.000001 -0.000001 0.633562 17.233641 -3.284117 -63.579998 16.948578 52.329914 -0.000089 111.659209 0.000073 -19.445050 1.163407 4.999738 -7.341099 13.749663 7.412328 9.855731 -44.489096 -3.903288 0.000002 -0.000003 0.000001 -0.124374 -2.384789 45.108864 4.500585 -4.654549 88.071164 -0.000001 0.000001 0.000000 -0.761620 -2.932897 39.031061 5.133870 -4.632741 95.881629 -0.000000 -0.000000 0.000001 0.154762 -4.068806 39.122671 6.509722 -4.273576 113.462843 -0.000002 -0.000003 0.000003 -4.198869 -8.025530 44.637766 4.252889 -4.639616 85.014818 0.000002 0.000003 0.000000 0.000001 0.000003 -0.000002 0.000000 0.000001 0.000000 0.000001 0.000002 -0.000000 -0.000002 0.000002 0.000001 -0.000002 0.000003 0.000001 -0.000002 0.000002 0.000001 -0.000002 0.000002 0.000001 -0.000002 0.000001 -0.000001 -0.000002 0.000001 -0.000001 -0.000002 0.000001 -0.000001 -0.000002 0.000001 -0.000001 -0.000002 0.000001 -0.000001 -0.000002 0.000001 -0.000001 -0.000002 0.000001 -0.000001 0.000003 0.000000 -0.000000 -0.000000 -0.000000 -0.000000 
6.384094 80.293839 -2.379764 0.786493 -57.933528 4.385408 0.000000 -0.000003 -0.000000 -44.261043 3.514435 22.799776 62.771850 2.012472 0.670437 -16.945090 -8.056061 -18.632051 -0.000000 -0.000003 -0.000000 0.000000 -0.000003 0.000000 -42.269596 5.715015 -27.757300 65.935375 -2.960340 -6.319659 -17.254513 -5.922199 21.971655 0.000000 0.000000 -0.000000 0.000003 0.000001 -0.000003 20.450536 2.230801 2.671147 16.678622 1.539293 -1.424955 16.667904 1.553815 -1.444236 2.677863 0.487207 -0.527969 2.677891 0.487211 -0.527951 -0.000002 -0.000001 0.000000 2.677848 0.487210 -0.527958 2.677844 0.487210 -0.527962 -0.000001 0.000001 -0.000000 -0.000002 -0.000001 -0.000000 -1.070622 -8.446645 10.717991 -39.306489 1.371712 -52.221420 -0.000037 -116.839197 -0.000035 -7.465796 2.825274 -9.961691 -6.141210 -11.690800 -6.761687 9.914103 42.595512 3.409872 0.000002 -0.000001 -0.000004 0.255322 3.378225 -45.814361 5.654094 5.847760 -88.067455 -0.000000 0.000003 -0.000001 -0.461476 3.841583 -39.722673 6.450741 5.820343 -95.892871 -0.000003 0.000001 -0.000000 0.469726 4.966815 -39.799437 8.181045 5.368600 -113.503011 0.000005 0.000001 -0.000001 -3.762422 9.063710 -45.253814 5.342520 5.828981 -85.005317 0.000000 -0.000003 0.000001 -0.000001 -0.000000 -0.000001 -0.000001 -0.000000 -0.000001 -0.000001 0.000000 -0.000001 0.000000 -0.000001 0.000001 0.000001 -0.000001 0.000002 0.000000 -0.000001 0.000001 -0.000000 -0.000000 0.000002 0.628475 17.164141 -4.089358 -63.289216 18.291329 54.421984 0.000079 110.707538 -0.000083 -19.112777 2.125142 5.500598 -7.341099 13.749662 7.412324 9.855725 -44.489096 -3.903299 0.000001 0.000000 0.000001 -0.124372 -2.384789 45.108864 4.500584 -4.654550 88.071164 -0.000003 0.000001 -0.000001 -0.761617 -2.932897 39.031058 5.133869 -4.632743 95.881635 -0.000000 0.000002 0.000001 0.154762 -4.068801 39.122668 6.509721 -4.273574 113.462836 -0.000001 -0.000001 0.000003 -4.198873 -8.025525 44.637769 4.252889 -4.639613 85.014818 0.000001 0.000003 0.000000 0.000003 -0.000004 0.000003 0.000001 -0.000001 0.000003 0.000003 -0.000004 0.000003 -0.000000 0.000001 -0.000002 -0.000000 0.000002 -0.000002 -0.000000 0.000001 -0.000002 0.000000 0.000002 -0.000002 0.000003 0.000002 -0.000001 0.000003 0.000002 -0.000001 0.000003 0.000002 -0.000001 0.000003 0.000002 -0.000001 0.000003 0.000002 -0.000001 0.000003 0.000002 -0.000001 0.000003 0.000002 -0.000001 -0.000001 -0.000001 0.000000 0.000000 -0.000003 -0.000000 
5.637801 80.788651 -2.037837 -0.223379 -56.305911 3.363188 -0.000000 0.000001 0.000000 -43.285012 3.649463 22.302707 61.442326 0.986952 1.245864 -16.605904 -8.128839 -18.444723 -0.000000 -0.000000 0.000000 0.000000 -0.000003 0.000003 -39.390237 4.107337 -28.257439 64.996702 -3.204868 -6.226411 -18.359979 -6.894223 22.200451 0.000000 0.000000 -0.000000 0.000000 -0.000000 -0.000004 18.942925 2.680659 1.791826 15.526082 1.596746 -1.730560 15.516882 1.608705 -1.746582 2.745397 0.614019 -0.322370 2.745417 0.614019 -0.322378 0.000001 0.000000 -0.000001 2.745398 0.614010 -0.322372 2.745431 0.614032 -0.322366 -0.000000 -0.000001 0.000003 0.000001 0.000000 0.000002 -0.966077 -8.316700 8.397946 -40.737697 0.495398 -51.645147 0.000006 -119.611570 0.000015 -7.224148 1.789418 -9.087602 -6.141214 -11.690799 -6.761691 9.914100 42.595515 3.409877 0.000005 -0.000003 -0.000001 0.255312 3.378225 -45.814361 5.654095 5.847759 -88.067455 0.000001 0.000002 0.000001 -0.461475 3.841583 -39.722666 6.450737 5.820342 -95.892864 -0.000001 0.000002 -0.000002 0.469722 4.966813 -39.799444 8.181042 5.368602 -113.503011 0.000003 0.000001 0.000001 -3.762430 9.063711 -45.253814 5.342520 5.828979 -85.005311 0.000000 -0.000005 -0.000003 -0.000000 -0.000001 -0.000000 -0.000000 -0.000001 -0.000000 -0.000001 -0.000000 -0.000000 0.000003 -0.000002 -0.000003 0.000003 -0.000002 -0.000004 0.000003 -0.000002 -0.000003 0.000002 -0.000001 -0.000003 0.668315 16.978443 -4.859845 -62.922756 19.643846 56.577356 -0.000180 110.229397 0.000164 -18.639424 3.108040 6.091045 -7.341098 13.749663 7.412327 9.855728 -44.489096 -3.903293 0.000000 0.000001 -0.000000 -0.124373 -2.384788 45.108868 4.500585 -4.654543 88.071164 -0.000001 0.000001 0.000001 -0.761618 -2.932897 39.031058 5.133878 -4.632740 95.881629 0.000001 0.000004 -0.000000 0.154765 -4.068801 39.122671 6.509717 -4.273577 113.462843 0.000000 0.000001 -0.000001 -4.198868 -8.025526 44.637769 4.252892 -4.639615 85.014825 -0.000002 -0.000002 -0.000002 0.000000 0.000000 -0.000000 -0.000002 0.000002 0.000000 0.000000 0.000000 0.000000 -0.000001 0.000001 0.000000 -0.000002 0.000002 0.000000 -0.000001 0.000001 0.000000 -0.000001 0.000002 0.000000 0.000001 -0.000001 0.000000 0.000001 -0.000001 0.000000 0.000001 -0.000001 0.000000 0.000001 -0.000001 0.000000 0.000001 -0.000001 0.000000 0.000001 -0.000001 0.000000 0.000001 -0.000001 0.000000 -0.000002 0.000001 0.000000 -0.000000 0.000001 0.000000 
4.921092 81.317345 -1.657878 -1.068479 -54.763647 2.574849 -0.000000 0.000003 -0.000000 -42.199617 3.859759 21.843788 59.983220 0.028931 1.626886 -16.229341 -8.291314 -18.193713 0.000000 -0.000004 0.000000 0.000000 0.000000 -0.000001 -36.703353 2.283527 -28.912351 63.775430 -3.493285 -6.112158 -19.273167 -7.380219 22.382832 -0.000000 0.000000 0.000001 -0.000001 0.000000 0.000001 17.574574 3.097206 1.080526 14.386776 1.626487 -1.941638 14.379124 1.636874 -1.954582 2.789111 0.761585 -0.182998 2.789116 0.761586 -0.182997 -0.000000 0.000001 -0.000003 2.789127 0.761616 -0.183009 2.789170 0.761582 -0.182989 -0.000001 0.000002 -0.000001 -0.000000 0.000001 -0.000001 -0.831569 -7.582513 5.853298 -42.104711 -0.107072 -51.327126 0.000007 -122.186333 -0.000002 -6.516623 0.850131 -8.323953 -6.141213 -11.690793 -6.761690 9.914094 42.595515 3.409880 0.000001 0.000000 -0.000004 0.255312 3.378226 -45.814361 5.654098 5.847763 -88.067455 0.000000 -0.000002 -0.000001 -0.461467 3.841583 -39.722669 6.450742 5.820341 -95.892864 0.000000 0.000002 0.000002 0.469726 4.966815 -39.799441 8.181054 5.368605 -113.503011 -0.000002 0.000001 -0.000003 -3.762431 9.063714 -45.253808 5.342517 5.828980 -85.005317 0.000002 -0.000002 -0.000002 0.000002 0.000001 -0.000000 0.000002 0.000001 -0.000000 0.000001 0.000001 -0.000000 0.000004 0.000001 0.000001 0.000005 0.000000 -0.000002 0.000004 0.000001 0.000001 0.000003 0.000001 0.000001 0.773833 16.761226 -5.531812 -62.483213 20.982442 58.763300 0.000183 109.932243 -0.000170 -18.031062 4.155920 6.617594 -7.341096 13.749663 7.412328 9.855728 -44.489096 -3.903297 -0.000000 -0.000004 -0.000001 -0.124374 -2.384790 45.108857 4.500585 -4.654545 88.071164 0.000003 -0.000004 0.000001 -0.761617 -2.932899 39.031058 5.133870 -4.632741 95.881635 0.000001 -0.000001 -0.000001 0.154765 -4.068803 39.122675 6.509724 -4.273574 113.462836 -0.000001 -0.000003 -0.000001 -4.198870 -8.025529 44.637776 4.252889 -4.639618 85.014818 -0.000003 0.000001 0.000005 -0.000002 0.000001 0.000001 -0.000002 -0.000001 0.000001 -0.000002 0.000001 -0.000001 0.000001 0.000001 0.000003 0.000000 0.000001 0.000001 0.000001 0.000001 0.000003 0.000001 0.000001 0.000003 -0.000003 0.000001 0.000000 -0.000003 0.000001 0.000000 -0.000003 0.000001 0.000000 -0.000003 0.000001 0.000000 -0.000003 0.000001 0.000000 -0.000003 0.000001 0.000000 -0.000003 0.000001 0.000000 0.000000 -0.000001 -0.000000 -0.000000 0.000003 -0.000000 
